<svg width="496" height="496" viewBox="0 0 496 496" fill="none" xmlns="http://www.w3.org/2000/svg">
<path d="M262.453 0C279.017 23.9019 294.113 48.7898 307.658 74.5261C309.651 74.2438 311.661 74.1011 313.674 74.0989C321.797 74.1007 329.756 76.392 336.639 80.7105C343.522 85.029 349.051 91.2002 352.592 98.5176C371.849 96.7938 391.161 95.7733 410.492 95.4581C421.629 95.2849 432.812 95.3542 444.047 95.6428C401.477 40.7152 336.38 4.23142 262.453 0ZM227.399 0.461819C226.551 0.531092 225.697 0.577274 224.849 0.652319C205.384 40.5189 190.158 79.9121 179.275 118.791C183.943 121.682 188.018 125.436 191.283 129.852C217.52 121.907 244.142 115.299 271.047 110.052C272.483 101.705 276.333 93.9642 282.12 87.7861C266.565 58.2643 248.381 29.1466 227.399 0.461819ZM190.256 6.36156C130.123 20.6992 77.5183 57.0205 42.7713 108.193C69.3923 114.304 95.7474 121.522 121.768 129.829C125.273 125.1 129.706 121.136 134.794 118.18C139.882 115.224 145.519 113.338 151.361 112.638C161.021 77.4067 173.986 41.9505 190.256 6.36156ZM427.431 124.229C403.311 124.074 379.446 125.061 355.811 127.116C353.709 136.244 348.706 144.443 341.554 150.484C349.508 171.891 356.28 193.72 361.838 215.872C367.488 216.472 372.965 218.181 377.956 220.901C382.947 223.621 387.353 227.299 390.923 231.724C424.357 221.698 458.406 213.86 492.857 208.257C488.214 179.093 478.374 151.002 463.806 125.32C451.619 124.685 439.496 124.31 427.431 124.229ZM27.2915 134.401C14.8115 158.724 6.45975 184.955 2.57805 212.021C38.8668 191.17 75.7726 172.974 113.313 157.538C113.309 157.48 113.305 157.423 113.301 157.365C85.4331 148.463 56.7228 140.884 27.2915 134.401ZM275.834 138.35C250.17 143.36 224.774 149.66 199.744 157.226C199.725 157.718 199.698 158.208 199.663 158.698C244.365 177.656 287.304 200.536 327.977 227.071C329.867 225.334 331.907 223.77 334.073 222.395C328.796 201.479 322.373 180.87 314.833 160.661C314.447 160.674 314.06 160.682 313.674 160.684C305.949 160.681 298.366 158.608 291.712 154.679C285.059 150.75 279.578 145.11 275.839 138.344L275.834 138.35ZM124.035 184.191C81.9842 201.538 40.6605 222.533 0.0230708 246.975C0.0230708 247.247 0 247.506 0 247.778C0 313.391 25.3364 372.919 66.7062 417.248C90.3026 396.124 114.923 376.174 140.478 357.471C129.635 303.791 128.06 248.915 135.166 193.266C130.977 190.886 127.215 187.823 124.035 184.202V184.191ZM188.174 185.109C181.53 192.253 172.668 196.939 163.028 198.409C156.961 246.294 157.826 293.348 165.958 339.518C213.009 307.566 262.344 280.7 314.02 259.196C314.02 259.106 314.02 259.015 314.02 258.925C314.024 256.819 314.182 254.716 314.493 252.633C274.514 226.346 232.235 203.745 188.174 185.109ZM495.729 237.029C463.567 242.351 431.772 249.693 400.531 259.011C400.519 265.288 399.144 271.487 396.5 277.178C423.958 299.636 449.908 323.88 474.182 349.753C488.599 317.695 496.036 282.934 496 247.778C496 244.175 495.885 240.591 495.729 237.029ZM323.755 286.265C270.833 308.38 220.455 336.389 172.423 370.004C182.92 412.364 199.628 453.957 222.767 494.736C231.061 495.573 239.481 496 248 496C281.636 496 313.674 489.303 342.892 477.215C352.656 417.098 354.576 358.464 348.267 301.262C338.628 299.204 329.98 293.913 323.755 286.265ZM376.706 298.156C382.647 351.554 381.753 406.049 374.341 461.479C409.38 440.727 438.787 411.675 459.976 376.879C434.175 348.646 406.344 322.341 376.706 298.174V298.156ZM147.681 387.951C127.004 403.545 106.977 419.983 87.6478 437.222C116.32 461.589 150.175 479.079 186.629 488.357C169.793 455.475 156.857 421.97 147.681 387.951Z" fill="#22B158"/>
</svg>
