<svg width="2516" height="3156" viewBox="0 0 2516 3156" fill="none" xmlns="http://www.w3.org/2000/svg">
<g clip-path="url(#clip0_19_3)">
<rect width="2516" height="3156" fill="#18315B"/>
<path d="M2331.15 2351.4C2347.78 2333.4 2376.22 2333.4 2392.85 2351.4L2643.29 2622.5C2668.14 2649.4 2649.06 2693 2612.43 2693H2111.57C2074.94 2693 2055.86 2649.4 2080.71 2622.5L2331.15 2351.4Z" fill="#22AA4F"/>
<path d="M83.1488 1477.4C99.7775 1459.4 128.222 1459.4 144.851 1477.4L395.286 1748.5C420.135 1775.4 401.056 1819 364.435 1819H-136.435C-173.056 1819 -192.135 1775.4 -167.286 1748.5L83.1488 1477.4Z" fill="#22AA4F"/>
<path d="M2470.85 2114.6C2454.22 2132.6 2425.78 2132.6 2409.15 2114.6L2158.71 1843.5C2133.86 1816.6 2152.94 1773 2189.57 1773H2690.43C2727.06 1773 2746.14 1816.6 2721.29 1843.5L2470.85 2114.6Z" fill="#E6E432"/>
<path d="M144.851 1289.6C128.222 1307.6 99.7775 1307.6 83.1488 1289.6L-167.286 1018.5C-192.135 991.599 -173.056 948 -136.435 948H364.435C401.056 948 420.135 991.599 395.286 1018.5L144.851 1289.6Z" fill="#E6E432"/>
</g>
<defs>
<clipPath id="clip0_19_3">
<rect width="2516" height="3156" fill="white"/>
</clipPath>
</defs>
</svg>
